<?xml version="1.0" standalone="no"?>
<!DOCTYPE svg PUBLIC "-//W3C//DTD SVG 20010904//EN"
 "http://www.w3.org/TR/2001/REC-SVG-20010904/DTD/svg10.dtd">
<svg version="1.0" xmlns="http://www.w3.org/2000/svg"
 width="500.000000pt" height="380.000000pt" viewBox="0 0 500.000000 380.000000"
 preserveAspectRatio="xMidYMid meet">

<g transform="translate(0.000000,380.000000) scale(0.100000,-0.100000)"
fill="#fff" stroke="none">
<path d="M3094 3776 c-39 -17 -71 -58 -84 -105 -24 -88 50 -191 138 -191 28 0
32 -3 32 -27 0 -16 3 -38 6 -50 l6 -23 -823 0 c-815 0 -823 0 -866 -21 -115
-56 -124 -215 -16 -289 l37 -25 423 -2 c467 -3 465 -2 503 -66 40 -66 16 -157
-52 -194 -31 -17 -84 -18 -740 -23 -697 -5 -707 -5 -735 -26 -54 -40 -75 -83
-71 -142 5 -60 28 -97 79 -127 33 -19 50 -20 444 -18 226 1 523 -3 660 -8
l250 -10 39 48 c200 242 477 406 776 459 124 22 326 22 450 0 458 -81 842
-412 989 -852 86 -257 86 -561 0 -818 -147 -440 -531 -771 -989 -852 -124 -22
-326 -22 -450 0 -296 53 -585 221 -756 441 l-59 75 -525 -3 c-509 -2 -526 -3
-560 -23 -122 -71 -97 -257 39 -294 21 -5 261 -10 577 -10 505 -1 543 -3 568
-20 90 -58 86 -187 -6 -237 -31 -17 -99 -18 -1158 -23 -863 -4 -1130 -8 -1146
-17 -12 -7 -34 -26 -48 -44 -23 -27 -26 -39 -26 -107 1 -81 9 -99 60 -135 23
-16 135 -17 1758 -17 1701 0 1736 0 1833 20 672 137 1192 657 1329 1329 17 82
20 138 20 326 0 188 -3 244 -20 326 -137 670 -659 1193 -1327 1328 -55 12
-113 21 -127 21 -25 0 -26 2 -26 65 0 63 1 65 25 65 38 0 80 25 112 66 39 52
39 126 -1 179 -46 60 -69 65 -303 65 -151 -1 -216 -4 -239 -14z"/>
<path d="M106 2750 c-91 -28 -135 -145 -84 -220 51 -74 56 -75 288 -75 196 0
210 1 237 21 97 72 97 186 0 258 -26 19 -43 21 -220 23 -106 1 -205 -2 -221
-7z"/>
<path d="M3309 2734 c-56 -37 -76 -115 -42 -164 33 -48 54 -57 142 -64 387
-30 678 -260 787 -623 23 -76 27 -106 27 -223 0 -118 -4 -146 -27 -225 -104
-343 -376 -571 -734 -616 -157 -20 -304 4 -475 77 -43 19 -92 34 -108 34 -96
0 -150 -102 -96 -180 41 -61 219 -135 401 -166 130 -23 328 -14 458 20 391
101 694 401 795 785 37 141 43 338 13 480 -43 213 -129 376 -278 532 -151 158
-328 264 -529 315 -131 33 -297 42 -334 18z"/>
<path d="M2530 2166 c8 -7 164 -123 345 -256 182 -133 339 -253 349 -267 24
-31 110 -73 151 -73 94 0 185 69 203 156 20 91 -14 170 -92 218 -43 27 -57 30
-135 31 -76 2 -127 13 -452 103 -201 56 -370 102 -375 102 -4 0 -2 -6 6 -14z"/>
<path d="M125 2146 c-125 -56 -134 -228 -14 -295 36 -21 49 -21 788 -21 433 0
751 -4 751 -9 0 -5 10 -11 23 -15 74 -18 110 -129 65 -196 -47 -69 -48 -69
-481 -70 -425 0 -419 1 -471 -60 -69 -82 -48 -196 45 -249 36 -21 48 -21 667
-21 l630 0 -24 76 c-77 242 -76 549 1 781 14 40 25 78 25 83 0 7 -350 10 -987
10 -803 -1 -994 -3 -1018 -14z"/>
<path d="M460 891 c-97 -52 -97 -200 0 -252 31 -17 59 -19 238 -19 227 0 258
6 292 62 33 54 35 92 9 145 -40 78 -58 83 -299 83 -181 0 -209 -2 -240 -19z"/>
</g>
</svg>